# xmcd
#
# Track frame offsets:
#	150
#	16500
#	27102
#	35672
#	66016
#	75747
#	88962
#	109145
#	124102
#	139640
#	151113
#
# Disc length: 2171 seconds
#
# Revision: 1
# Processed by: cddbd v1.5.2PL0 Copyright (c) Steve Scherf et al.
# Submitted via: audiograbber 1.83.01
#
DISCID=8008790b
DTITLE=Trudi Lalor - Country girl again
DYEAR=1900
DGENRE=Country
TTITLE0=That's love
TTITLE1=Happiness of having you
TTITLE2=Country girl again
TTITLE3=Country medley
TTITLE4=Don't fight the feelings of love
TTITLE5=On the wings of a dove
TTITLE6=Country five medley
TTITLE7=Holding on to love to save my life
TTITLE8=You light up my life
TTITLE9=Never ending love for you
TTITLE10=Will the circle be unbroken
EXTD=
EXTT0=
EXTT1=
EXTT2=
EXTT3=
EXTT4=
EXTT5=
EXTT6=
EXTT7=
EXTT8=
EXTT9=
EXTT10=
PLAYORDER=
